#tb 0: 1/25
0,          0,          0,        1,   488448, 0x0d7343b9
0,          1,          1,        1,   488448, 0x118e3ade
0,          2,          2,        1,   488448, 0x778f1ba9
0,          3,          3,        1,   488448, 0x153bf44e
0,          4,          4,        1,   488448, 0x2d83c1ab
0,          5,          5,        1,   488448, 0xa3e95f8f
0,          6,          6,        1,   488448, 0x91aad31b
0,          7,          7,        1,   488448, 0x90b92c09
0,          8,          8,        1,   488448, 0x1e4c9f41
0,          9,          9,        1,   488448, 0xa88c1882
0,         10,         10,        1,   488448, 0x1aa04274
0,         11,         11,        1,   488448, 0x49c45de8
0,         12,         12,        1,   488448, 0xe799c29f
0,         13,         13,        1,   488448, 0x789e233f
0,         14,         14,        1,   488448, 0x9f753404
0,         15,         15,        1,   488448, 0x83050c2c
0,         16,         16,        1,   488448, 0xddf7ccbf
0,         17,         17,        1,   488448, 0xe3128531
0,         18,         18,        1,   488448, 0xcc6596af
0,         19,         19,        1,   488448, 0x6e19754f
0,         20,         20,        1,   488448, 0xc3b32c7c
0,         21,         21,        1,   488448, 0x40b4853f
0,         22,         22,        1,   488448, 0x6e492674
0,         23,         23,        1,   488448, 0x7f867236
0,         24,         24,        1,   488448, 0x22094365
0,         25,         25,        1,   488448, 0x45f30fc3
0,         26,         26,        1,   488448, 0xe6cbad09
0,         27,         27,        1,   488448, 0x0c44836b
0,         28,         28,        1,   488448, 0xa7f04271
0,         29,         29,        1,   488448, 0xd222ba88
0,         30,         30,        1,   488448, 0xc96a9749
0,         31,         31,        1,   488448, 0x82e25bbd
0,         32,         32,        1,   488448, 0xf79d1882
0,         33,         33,        1,   488448, 0x6d7fdd68
0,         34,         34,        1,   488448, 0xeb5c9b1b
0,         35,         35,        1,   488448, 0x9014f9f4
0,         36,         36,        1,   488448, 0x96c6ab5f
0,         37,         37,        1,   488448, 0x03911af0
0,         38,         38,        1,   488448, 0xbf9dd8eb
0,         39,         39,        1,   488448, 0x73509963
0,         40,         40,        1,   488448, 0xf2ecb068
0,         41,         41,        1,   488448, 0xec2fb311
0,         42,         42,        1,   488448, 0xf4c7ba26
0,         43,         43,        1,   488448, 0x23f56543
0,         44,         44,        1,   488448, 0x25f8c48c
0,         45,         45,        1,   488448, 0xf1ccd38b
0,         46,         46,        1,   488448, 0x10780667
0,         47,         47,        1,   488448, 0xbeb70431
0,         48,         48,        1,   488448, 0xbc950678
0,         49,         49,        1,   488448, 0xfedf5d83
